<svg xmlns="http://www.w3.org/2000/svg" xmlns:xlink="http://www.w3.org/1999/xlink" xmlns:fi="http://pattern.flaticon.com/" x="0" y="0" width="700" height="350" viewBox="0 0 700 350"><rect x="0px" y="0px" width="100%" height="100%" opacity="1" fill="#ffecb3"/><defs><g transform="matrix(0.17578125 0 0 0.17578125 305 305)" id="L1_48"><path d="m511.967 300.307c-.057-.884-.217-1.748-.505-2.588l-26.468-77.413c-1.842-5.552-2.776-11.334-2.776-17.187v-119.547c0-34.86-28.356-63.22-63.21-63.22-5.523 0-10 4.477-10 10s4.477 10 10 10c23.826 0 43.21 19.389 43.21 43.22v119.548c0 7.997 1.276 15.898 3.822 23.571l21.972 64.264h-26.829v-2.849c0-37.411-18.047-54.917-27.532-61.533l-6.5-106.388h.228c2.935 0 5.721-1.289 7.621-3.526 1.9-2.236 2.722-5.195 2.248-8.091l-3.288-20.072c-2.26-13.797-14.047-23.811-28.028-23.811h-26.505c-13.98 0-25.768 10.014-28.028 23.811l-3.288 20.072c-.474 2.896.348 5.854 2.248 8.091 1.9 2.236 4.687 3.525 7.621 3.525h.233l-6.509 106.388c-9.485 6.617-27.532 24.123-27.532 61.533v2.849h-136.346v-2.849c0-37.411-18.046-54.916-27.532-61.533l-6.5-106.388h.228c2.935 0 5.721-1.289 7.621-3.526 1.9-2.236 2.722-5.195 2.248-8.091l-3.288-20.072c-2.26-13.797-14.047-23.811-28.028-23.811h-26.505c-13.98 0-25.768 10.014-28.028 23.81l-3.288 20.072c-.474 2.896.348 5.854 2.248 8.091s4.687 3.526 7.621 3.526h.232l-6.508 106.388c-9.485 6.617-27.533 24.123-27.533 61.533v2.849h-26.968l21.312-64.35c2.517-7.586 3.793-15.488 3.793-23.484v-119.547c0-23.832 19.384-43.22 43.21-43.22h237.969c.427.031.863.034 1.302.007 5.408-.318 9.558-4.877 9.409-10.254-.003-.115-.008-.229-.014-.341-.311-5.286-4.688-9.413-9.983-9.413h-238.683c-34.854 0-63.21 28.36-63.21 63.22v119.549c0 5.853-.934 11.635-2.778 17.191l-25.666 77.499c-.333 1.007-.507 2.083-.507 3.144v180.694c0 5.523 4.477 10 10 10h492c5.523 0 10-4.477 10-10v-180.694c0-.218-.019-.432-.033-.647-.006-.101.014.215 0 0zm-140.831-208.578c.668-4.081 4.155-7.043 8.291-7.043h26.505c4.136 0 7.622 2.962 8.291 7.043l1.385 8.456h-45.857zm-273.357 0c.668-4.081 4.155-7.043 8.291-7.043h26.505c4.136 0 7.622 2.962 8.291 7.043l1.385 8.456h-45.857zm246.393 196.376c0-35.371 19.721-45.798 21.281-46.567 3.526-1.462 5.661-4.701 5.894-8.518l6.903-112.834h28.865l6.894 112.833c.233 3.817 2.368 7.057 5.894 8.519 1.561.769 21.282 11.196 21.282 46.567v2.849h-97.012v-2.849zm-273.358 0c0-35.371 19.721-45.798 21.281-46.567 3.527-1.462 5.661-4.701 5.895-8.518l6.902-112.834h28.865l6.894 112.833c.233 3.817 2.368 7.057 5.894 8.519 1.561.769 21.281 11.196 21.281 46.567v2.849h-97.012zm-50.814 118.82h36.936c5.523 0 10-4.477 10-10s-4.477-10-10-10h-36.936v-75.971h152.635c-22.678 22.445-35.996 53.37-35.996 85.968 0 27.408 9.243 53.616 25.893 74.727h-142.532zm227.435-16.553v15.528l-14.384-11.464c-6.433-5.128-10.123-12.787-10.123-21.013v-15.528l14.384 11.464c6.434 5.127 10.123 12.787 10.123 21.013zm30.123-21.013 14.384-11.465v15.528c0 8.227-3.69 15.885-10.123 21.013l-14.384 11.465v-15.528c0-8.226 3.69-15.886 10.123-21.013zm4.261 79.133-14.384 11.464v-15.528c0-8.227 3.689-15.886 10.123-21.013l14.384-11.464v15.528c0 8.226-3.69 15.885-10.123 21.013zm-58.891-36.542 14.384 11.464c6.434 5.127 10.123 12.786 10.123 21.013v15.528l-14.384-11.464c-6.433-5.128-10.123-12.787-10.123-21.013zm61.925 59.698 9.431-7.517c11.221-8.944 17.657-22.304 17.657-36.653v-36.286c0-1.984-.596-3.871-1.64-5.468 1.07-3.959 1.64-8.085 1.64-12.302v-36.286c0-3.841-2.2-7.342-5.66-9.009-3.46-1.666-7.57-1.205-10.573 1.189l-28.274 22.535v-8.497c0-5.523-4.477-10-10-10s-10 4.477-10 10v8.497l-28.274-22.535c-3.004-2.394-7.113-2.856-10.573-1.189s-5.66 5.168-5.66 9.009v36.286c0 4.217.57 8.343 1.64 12.302-1.044 1.597-1.64 3.484-1.64 5.468v36.286c0 14.349 6.436 27.708 17.657 36.653l9.431 7.517h-40.216c-21.12-19.104-33.162-46.137-33.162-74.727 0-34.993 18.383-67.69 48.149-85.968h105.297c29.766 18.277 48.149 50.975 48.149 85.968 0 28.59-12.042 55.622-33.162 74.727zm67.488 0c16.65-21.111 25.893-47.318 25.893-74.727 0-32.598-13.318-63.523-35.996-85.968h149.762v75.971h-80.718c-5.523 0-10 4.477-10 10s4.477 10 10 10h80.718v64.723h-139.659z"/><path d="m200.997 71.675c-8.442 0-15.311 6.869-15.311 15.311v48.748c0 5.985 3.363 11.289 8.777 13.842 5.416 2.555 11.648 1.775 16.26-2.025l14.066-11.568c1.954-1.611 4.424-2.498 6.956-2.498h48.158c2.488 0 4.935.864 6.875 2.42l14.789 11.913c2.794 2.249 6.162 3.403 9.572 3.403 2.247 0 4.512-.501 6.644-1.522 5.365-2.57 8.698-7.863 8.698-13.815v-48.898c0-8.442-6.868-15.311-15.311-15.311zm105.484 54.419-7.173-5.778c-5.492-4.405-12.384-6.832-19.405-6.832h-48.158c-7.163 0-14.152 2.51-19.669 7.059l-6.39 5.255v-34.123h100.795z"/><path d="m108.53 393c-2.092-5.021-8.023-7.508-13.06-5.41-5.023 2.093-7.509 8.02-5.41 13.06 2.101 5.042 8.008 7.481 13.06 5.41 5.019-2.091 7.51-8.024 5.41-13.06-.25-.6.25.6 0 0z"/><path d="m365.99 34.75c2.102 5.042 8.009 7.48 13.06 5.41 5.018-2.09 7.507-8.028 5.41-13.06-2.063-5.032-8.046-7.498-13.06-5.41-5.059 2.074-7.472 8.027-5.41 13.06.25.6-.25-.61 0 0z"/></g><path d="M165,0C74.019,0,0,74.019,0,165s74.019,165,165,165c90.982,0,165-74.019,165-165S255.982,0,165,0z" transform="matrix(0.03030303120613098 0 0 0.03030303120613098 345 82.5)" id="L1_51" fill="#ffc108"/><g transform="matrix(-0.1171875 0 0 0.1171875 118.87554547309878 57.50000011444092)" id="L1_50"><path d="m511.967 300.307c-.057-.884-.217-1.748-.505-2.588l-26.468-77.413c-1.842-5.552-2.776-11.334-2.776-17.187v-119.547c0-34.86-28.356-63.22-63.21-63.22-5.523 0-10 4.477-10 10s4.477 10 10 10c23.826 0 43.21 19.389 43.21 43.22v119.548c0 7.997 1.276 15.898 3.822 23.571l21.972 64.264h-26.829v-2.849c0-37.411-18.047-54.917-27.532-61.533l-6.5-106.388h.228c2.935 0 5.721-1.289 7.621-3.526 1.9-2.236 2.722-5.195 2.248-8.091l-3.288-20.072c-2.26-13.797-14.047-23.811-28.028-23.811h-26.505c-13.98 0-25.768 10.014-28.028 23.811l-3.288 20.072c-.474 2.896.348 5.854 2.248 8.091 1.9 2.236 4.687 3.525 7.621 3.525h.233l-6.509 106.388c-9.485 6.617-27.532 24.123-27.532 61.533v2.849h-136.346v-2.849c0-37.411-18.046-54.916-27.532-61.533l-6.5-106.388h.228c2.935 0 5.721-1.289 7.621-3.526 1.9-2.236 2.722-5.195 2.248-8.091l-3.288-20.072c-2.26-13.797-14.047-23.811-28.028-23.811h-26.505c-13.98 0-25.768 10.014-28.028 23.81l-3.288 20.072c-.474 2.896.348 5.854 2.248 8.091s4.687 3.526 7.621 3.526h.232l-6.508 106.388c-9.485 6.617-27.533 24.123-27.533 61.533v2.849h-26.968l21.312-64.35c2.517-7.586 3.793-15.488 3.793-23.484v-119.547c0-23.832 19.384-43.22 43.21-43.22h237.969c.427.031.863.034 1.302.007 5.408-.318 9.558-4.877 9.409-10.254-.003-.115-.008-.229-.014-.341-.311-5.286-4.688-9.413-9.983-9.413h-238.683c-34.854 0-63.21 28.36-63.21 63.22v119.549c0 5.853-.934 11.635-2.778 17.191l-25.666 77.499c-.333 1.007-.507 2.083-.507 3.144v180.694c0 5.523 4.477 10 10 10h492c5.523 0 10-4.477 10-10v-180.694c0-.218-.019-.432-.033-.647-.006-.101.014.215 0 0zm-140.831-208.578c.668-4.081 4.155-7.043 8.291-7.043h26.505c4.136 0 7.622 2.962 8.291 7.043l1.385 8.456h-45.857zm-273.357 0c.668-4.081 4.155-7.043 8.291-7.043h26.505c4.136 0 7.622 2.962 8.291 7.043l1.385 8.456h-45.857zm246.393 196.376c0-35.371 19.721-45.798 21.281-46.567 3.526-1.462 5.661-4.701 5.894-8.518l6.903-112.834h28.865l6.894 112.833c.233 3.817 2.368 7.057 5.894 8.519 1.561.769 21.282 11.196 21.282 46.567v2.849h-97.012v-2.849zm-273.358 0c0-35.371 19.721-45.798 21.281-46.567 3.527-1.462 5.661-4.701 5.895-8.518l6.902-112.834h28.865l6.894 112.833c.233 3.817 2.368 7.057 5.894 8.519 1.561.769 21.281 11.196 21.281 46.567v2.849h-97.012zm-50.814 118.82h36.936c5.523 0 10-4.477 10-10s-4.477-10-10-10h-36.936v-75.971h152.635c-22.678 22.445-35.996 53.37-35.996 85.968 0 27.408 9.243 53.616 25.893 74.727h-142.532zm227.435-16.553v15.528l-14.384-11.464c-6.433-5.128-10.123-12.787-10.123-21.013v-15.528l14.384 11.464c6.434 5.127 10.123 12.787 10.123 21.013zm30.123-21.013 14.384-11.465v15.528c0 8.227-3.69 15.885-10.123 21.013l-14.384 11.465v-15.528c0-8.226 3.69-15.886 10.123-21.013zm4.261 79.133-14.384 11.464v-15.528c0-8.227 3.689-15.886 10.123-21.013l14.384-11.464v15.528c0 8.226-3.69 15.885-10.123 21.013zm-58.891-36.542 14.384 11.464c6.434 5.127 10.123 12.786 10.123 21.013v15.528l-14.384-11.464c-6.433-5.128-10.123-12.787-10.123-21.013zm61.925 59.698 9.431-7.517c11.221-8.944 17.657-22.304 17.657-36.653v-36.286c0-1.984-.596-3.871-1.64-5.468 1.07-3.959 1.64-8.085 1.64-12.302v-36.286c0-3.841-2.2-7.342-5.66-9.009-3.46-1.666-7.57-1.205-10.573 1.189l-28.274 22.535v-8.497c0-5.523-4.477-10-10-10s-10 4.477-10 10v8.497l-28.274-22.535c-3.004-2.394-7.113-2.856-10.573-1.189s-5.66 5.168-5.66 9.009v36.286c0 4.217.57 8.343 1.64 12.302-1.044 1.597-1.64 3.484-1.64 5.468v36.286c0 14.349 6.436 27.708 17.657 36.653l9.431 7.517h-40.216c-21.12-19.104-33.162-46.137-33.162-74.727 0-34.993 18.383-67.69 48.149-85.968h105.297c29.766 18.277 48.149 50.975 48.149 85.968 0 28.59-12.042 55.622-33.162 74.727zm67.488 0c16.65-21.111 25.893-47.318 25.893-74.727 0-32.598-13.318-63.523-35.996-85.968h149.762v75.971h-80.718c-5.523 0-10 4.477-10 10s4.477 10 10 10h80.718v64.723h-139.659z"/><path d="m200.997 71.675c-8.442 0-15.311 6.869-15.311 15.311v48.748c0 5.985 3.363 11.289 8.777 13.842 5.416 2.555 11.648 1.775 16.26-2.025l14.066-11.568c1.954-1.611 4.424-2.498 6.956-2.498h48.158c2.488 0 4.935.864 6.875 2.42l14.789 11.913c2.794 2.249 6.162 3.403 9.572 3.403 2.247 0 4.512-.501 6.644-1.522 5.365-2.57 8.698-7.863 8.698-13.815v-48.898c0-8.442-6.868-15.311-15.311-15.311zm105.484 54.419-7.173-5.778c-5.492-4.405-12.384-6.832-19.405-6.832h-48.158c-7.163 0-14.152 2.51-19.669 7.059l-6.39 5.255v-34.123h100.795z"/><path d="m108.53 393c-2.092-5.021-8.023-7.508-13.06-5.41-5.023 2.093-7.509 8.02-5.41 13.06 2.101 5.042 8.008 7.481 13.06 5.41 5.019-2.091 7.51-8.024 5.41-13.06-.25-.6.25.6 0 0z"/><path d="m365.99 34.75c2.102 5.042 8.009 7.48 13.06 5.41 5.018-2.09 7.507-8.028 5.41-13.06-2.063-5.032-8.046-7.498-13.06-5.41-5.059 2.074-7.472 8.027-5.41 13.06.25.6-.25-.61 0 0z"/></g><path d="M165,0C74.019,0,0,74.019,0,165s74.019,165,165,165c90.982,0,165-74.019,165-165S255.982,0,165,0z" transform="matrix(0.03030303120613098 0 0 0.03030303120613098 82.5 257.5)" id="L1_52" fill="#ffc108"/><g transform="matrix(0.078125 0 0 0.078125 242.5 67.5)" id="L1_53"><path d="m502 279.865h-20.93v-34.17c0-37.476-18.081-55.006-27.578-61.628l-6.512-106.593h.247c2.921 0 5.697-1.277 7.597-3.497 1.9-2.219 2.734-5.158 2.284-8.045l-3.305-21.181c-2.263-13.812-14.063-23.836-28.059-23.836h-26.55c-13.996 0-25.796 10.024-28.071 23.911l-3.293 21.105c-.451 2.887.384 5.826 2.284 8.045 1.9 2.22 4.675 3.497 7.597 3.497h.25l-6.521 106.593c-9.497 6.623-27.579 24.153-27.579 61.629v11.34.01 22.82h-17.98v-34.169c0-37.476-18.081-55.006-27.578-61.628l-6.513-106.594h.246c2.921 0 5.697-1.277 7.597-3.497 1.9-2.219 2.734-5.158 2.284-8.045l-3.305-21.181c-2.263-13.812-14.063-23.836-28.059-23.836h-26.55c-13.996 0-25.796 10.024-28.071 23.911l-3.293 21.105c-.451 2.887.384 5.826 2.284 8.045 1.9 2.22 4.675 3.497 7.597 3.497h.251l-6.521 106.594c-9.497 6.623-27.579 24.153-27.579 61.629v34.169h-20.53v-22.82c0-.003 0-.006 0-.01v-11.34c0-37.476-18.082-55.006-27.578-61.628l-6.513-106.594h.246c2.921 0 5.697-1.277 7.597-3.497 1.9-2.219 2.734-5.158 2.284-8.045l-3.305-21.181c-2.263-13.812-14.063-23.836-28.059-23.836h-26.55c-13.996 0-25.796 10.024-28.071 23.911l-3.293 21.105c-.451 2.887.384 5.826 2.284 8.045 1.9 2.22 4.675 3.497 7.597 3.497h.251l-6.521 106.593c-9.497 6.623-27.578 24.153-27.578 61.629v34.17h-20.932c-5.523 0-10 4.478-10 10v191.22c0 5.522 4.477 10 10 10h148.14c5.523 0 10-4.478 10-10 0-.003 0-.006 0-.01v-85.601h175.72v75.61h-97.4c-5.523 0-10 4.478-10 10s4.477 10 10 10h255.54c5.523 0 10-4.478 10-10v-191.22c0-5.52-4.477-9.998-10-9.998zm-111.129-231.88c.671-4.097 4.171-7.07 8.322-7.07h26.55c4.151 0 7.651 2.974 8.31 6.995l1.492 9.563h-46.155zm-155.19 0c.671-4.097 4.171-7.07 8.322-7.07h26.55c4.151 0 7.651 2.974 8.31 6.995l1.492 9.563h-46.155zm-27.011 197.711c0-35.444 19.766-45.893 21.328-46.662 3.526-1.462 5.661-4.701 5.894-8.518l6.915-113.041h28.946l6.906 113.04c.229 3.737 2.524 7.033 5.95 8.542.212.094 21.271 10.385 21.271 46.639v34.166h-97.21zm-130.73-197.711c.671-4.097 4.171-7.07 8.322-7.07h26.55c4.151 0 7.651 2.974 8.31 6.995l1.492 9.563h-46.155zm414.06 327.49h-66.83v-75.609h66.83zm-106.812-176.441c3.526-1.462 5.661-4.702 5.894-8.519l6.915-113.041h28.946l6.906 113.04c.229 3.737 2.524 7.033 5.95 8.542.212.094 21.271 10.385 21.271 46.639v34.17h-35.9v-22.83c0-1.728-.438-3.353-1.21-4.771-1.693-3.117-4.996-5.234-8.793-5.234h-51.307v-1.335c0-35.444 19.765-45.892 21.328-46.661zm-278.461 186.499c0-.02.003-.038.003-.058v-95.609-22.83h41.41v204.048h-41.413zm-55.797-139.838c0-35.446 19.768-45.894 21.327-46.662 3.526-1.462 5.661-4.701 5.894-8.518l6.916-113.041h28.945l6.906 113.04c.233 3.817 2.368 7.057 5.894 8.52 1.562.769 21.328 11.217 21.328 46.661v1.335h-51.413c-5.523 0-10 4.478-10 10v22.835h-35.797zm-30.93 54.17h66.727v75.609h-66.727zm0 95.61h66.727v75.61h-66.727zm148.14-20v-75.609h175.72v75.609zm195.72 95.608v-204.048h41.307v204.048zm128.14.002h-66.833v-75.61h66.833z"/><path d="m213.07 477.26c-2.061-5.032-8.047-7.499-13.06-5.41-5.058 2.074-7.471 8.028-5.41 13.061 2.102 5.042 8.011 7.479 13.06 5.409 5.017-2.091 7.507-8.03 5.41-13.06-.25-.611.25.599 0 0z"/></g><g transform="matrix(0.0390625 0 0 0.0390625 340 165)" id="L1_54"><path d="m253.897 148.74c-.028-.076-.058-.151-.089-.226-1.515-3.692-5.071-6.077-9.063-6.077-.002 0-.004 0-.006 0-3.993.002-7.551 2.392-9.063 6.088-.026.064-.052.128-.076.193l-21.495 56.438c-1.671 4.387.531 9.298 4.918 10.969 4.387 1.67 9.297-.531 10.969-4.918l3.268-8.582h22.803l3.23 8.558c1.635 4.334 6.615 6.588 10.953 4.951 4.393-1.658 6.609-6.562 4.951-10.954zm-14.161 36.885 4.979-13.072 4.933 13.072z"/><path d="m227.178 120.043h.038c.001 0 15.282-.068 19.494-.068 13.183 0 23.908-10.726 23.908-23.909 0-7.084-3.1-13.456-8.011-17.837 1.823-3.173 2.871-6.844 2.871-10.758 0-11.95-9.722-21.672-21.672-21.672h-16.628c-4.694 0-8.5 3.806-8.5 8.5v26.36.042 30.842c0 2.261.9 4.429 2.503 6.024 1.593 1.586 3.75 2.476 5.997 2.476zm19.532-17.067c-2.06 0-6.757.016-11.032.033v-13.843c.692-.003 1.387-.005 2.067-.008h8.966c3.81 0 6.908 3.099 6.908 6.908-.001 3.81-3.1 6.91-6.909 6.91zm-2.904-40.177c2.576 0 4.672 2.096 4.672 4.672s-2.096 4.672-4.672 4.672c-1.233 0-3.567.007-6.103.016h-2.025v-9.36z"/><path d="m271.538 262.453c0-12.89-10.864-23.377-24.219-23.377h-15.212c-.003 0-.006 0-.009 0s-.006 0-.009 0c-4.694 0-8.5 3.806-8.5 8.5v57.245c0 4.694 3.806 8.5 8.5 8.5s8.5-3.806 8.5-8.5v-12.641l16.068 18.256c3.061 3.477 8.519 3.826 11.997.765 3.523-3.102 3.866-8.472.765-11.996l-13.213-15.012c8.969-3.429 15.332-11.878 15.332-21.74zm-24.219-6.378c3.913 0 7.219 2.92 7.219 6.377s-3.306 6.377-7.219 6.377c-1.588 0-4.115.009-6.654.021-.012-2.453-.021-4.876-.021-6.398 0-1.306-.006-3.798-.012-6.377z"/><path d="m259.932 403.296-14.959 1.079c-31.744 2.288-62.832-9.334-85.291-31.887-22.458-22.553-33.949-53.688-31.528-85.423l8.406-110.168c.421-5.507-3.703-10.312-9.21-10.732-5.485-.417-10.312 3.703-10.731 9.21l-8.406 110.168c-2.865 37.543 10.73 74.377 37.298 101.057 24.365 24.467 57.311 38.06 91.573 38.059 3.099 0 6.213-.111 9.327-.336l14.959-1.079c5.509-.397 9.652-5.185 9.255-10.693-.398-5.509-5.195-9.65-10.693-9.255z"/><path d="m415.404 0c-16.976 0-30.786 13.811-30.786 30.787v42.265h-57.624v-37.029c0-19.863-16.16-36.023-36.023-36.023h-112.272c-19.863 0-36.023 16.16-36.023 36.023v28.563h-34.18c-11.277 0-22.196 4.516-30.172 12.49-8.196 8.194-12.742 19.476-12.507 31.064l3.966 195.269c.924 45.508 20.036 87.373 53.815 117.882 30.373 27.434 68.671 42.138 109.067 42.137 4.53 0 9.092-.185 13.666-.558l23.856-1.944v16.519c0 8.55 10.585 13.178 16.849 7.286l73.612-69.195c4.374-4.11 4.075-11.369-.618-15.108l-33.037-26.314v-66.117h57.624v194.003c0 5.523 4.478 10 10 10s10-4.477 10-10v-471.213c0-5.948 4.839-10.787 10.786-10.787 5.948 0 10.787 4.839 10.787 10.787v425.994c0 5.523 4.478 10 10 10s10-4.477 10-10v-425.994c.001-16.976-13.809-30.787-30.786-30.787zm-88.41 135.399h57.624v110.25h-57.624zm57.624-42.347v22.348h-57.624v-22.348zm-94.43 361.268v-4.242c0-5.753-5.073-10.442-10.813-9.967l-34.669 2.825c-39.81 3.246-78.062-9.714-107.703-36.487-29.643-26.773-46.414-63.512-47.225-103.447l-3.966-195.268c-.255-12.543 10.137-23.148 22.683-23.148h37.311c13.421 0 24.202 12.237 22.505 25.553l-21.771 170.979c-3.449 27.089 4.924 54.379 22.973 74.873 18.049 20.493 44.063 32.247 71.371 32.247h39.305c5.522 0 10-4.477 10-10v-7.871l20.575 16.388c.002.002.004.003.007.005l27.765 22.115zm-3.769-112.525c-6.429-5.12-16.23-.379-16.23 7.822v18.621h-29.305c-30.891 0-59.321-19.634-70.25-48.543-4.327-11.446-5.8-23.911-4.254-36.05l21.771-170.978c2.378-18.696-8.205-37.124-25.476-44.605v-32.039c0-8.835 7.188-16.023 16.023-16.023h112.271c8.835 0 16.023 7.188 16.023 16.023v322.16zm40.575-53.798v-22.348h57.624v22.348z"/><path d="m445.43 498.18c-2.065-5.036-8.045-7.5-13.06-5.41-5.059 2.072-7.471 8.028-5.41 13.06 2.102 5.041 8.016 7.469 13.06 5.4 5.014-2.087 7.506-8.018 5.41-13.05-.25-.61.25.6 0 0z"/><path d="m122.12 133.22c2.072 5.059 8.028 7.471 13.06 5.41 5.043-2.099 7.479-8.013 5.41-13.06-2.09-5.018-8.029-7.507-13.06-5.41-5.035 2.062-7.499 8.046-5.41 13.06.25.61-.25-.6 0 0z"/></g><g transform="matrix(0.03906257450580597 0 0 0.03906257450580597 165 165)" id="L1_55"><path d="m430.406 0h-94.531c-5.522 0-10 4.477-10 10v48.999c0 25.49 3.779 58.904 11.234 99.314 4.876 26.438 9.685 46.827 10.902 51.883v54.998h-55.813c-23.893 0-39.267-22.653-39.508-23.014-1.821-2.782-5.034-4.508-8.356-4.508h-41.881c-5.522 0-10 4.477-10 10v17.521h-24.271v-17.525c0-5.523-4.478-10-10-10h-76.59c-5.522 0-10 4.477-10 10v212.348c0 5.523 4.478 10 10 10h5.56v31.982c0 5.523 4.478 10 10 10s10-4.477 10-10v-31.982h26.67v31.982c0 5.523 4.478 10 10 10s10-4.477 10-10v-31.982h4.36c5.522 0 10-4.477 10-10v-98.88h24.271v13.699c0 5.523 4.478 10 10 10h41.881c2.493 0 4.969-.971 6.798-2.666 17.246-15.983 38.063-20.335 41.826-21.012 9.772.213 19.013 4.528 25.451 11.915l45.804 52.543c1.977 2.267 4.751 3.429 7.542 3.429 2.302 0 4.614-.79 6.499-2.403l33.604-28.765c3.994-3.419 4.659-9.348 1.52-13.566l-23.301-31.312c-1.111-1.494-1.724-3.343-1.724-5.205 0-4.807 3.91-8.717 8.717-8.717h30.344c5.522 0 10-4.477 10-10v-53.883c0-5.523-4.478-10-10-10h-9.146v-55.003c1.375-5.736 7.463-31.645 12.851-62.775.941-5.442-2.706-10.617-8.148-11.559-5.444-.946-10.617 2.707-11.559 8.148-4.11 23.748-8.631 44.38-11.064 54.994h-34.413c-5.219-22.794-20.061-91.858-20.061-140v-38.998h74.531v38.223c0 5.523 4.478 10 10 10s10-4.477 10-10v-48.223c.001-5.523-4.477-10-9.999-10zm-338.813 450.017v-192.348h56.59v192.348zm76.59-108.88v-55.942h24.271v55.942zm44.271-83.464h21.881v107.163h-21.881zm204.961 61.405h-20.344c-15.835 0-28.717 12.882-28.717 28.717 0 6.134 2.017 12.222 5.679 17.144l17.725 23.819-18.98 16.247-39.291-45.073c-10.405-11.936-25.453-18.781-41.287-18.781-.453 0-.906.031-1.355.092-.92.126-17.912 2.578-36.509 13.709v-82.93c9.387 6.96 22.162 13.172 37.864 13.172h65.813c5.522 0 10-4.477 10-10v-17.521h30.258v17.521c0 5.523 4.478 10 10 10h9.146v33.884zm-19.146-100.079v18.674h-30.258v-18.674z"/><path d="m436.939 97.5c-2.091-5.019-8.026-7.509-13.06-5.41-5.037 2.063-7.5 8.043-5.41 13.06 2.101 5.044 8.011 7.478 13.061 5.41 5.065-2.112 7.434-8.002 5.409-13.06-.25-.601.24.6 0 0z"/></g><g transform="matrix(0.1171913892030716 0 0 0.1171913892030716 155.99999834055166 229.00000094416896)" id="L1_57"><path d="m218.357 341.641c-8.039-5.532-17.755-7.599-27.345-5.829-19.567 3.616-32.909 22.96-29.288 42.56 3.613 19.556 23 32.899 42.561 29.288 19.809-3.66 32.946-22.753 29.287-42.561-1.774-9.596-7.177-17.927-15.215-23.458zm-17.705 46.35c-4.345.801-8.738-.136-12.375-2.638-3.638-2.503-6.083-6.273-6.885-10.616-1.64-8.867 4.399-17.623 13.254-19.258 8.868-1.642 17.623 4.399 19.258 13.252 1.656 8.964-4.289 17.605-13.252 19.26z"/><path d="m441.642 67.469c14.349-18.097 9.123-44.686 8.883-45.861-.797-3.884-3.814-6.931-7.69-7.765l-55.847-12.027c-3.874-.834-7.88.7-10.205 3.911-.702.969-16.34 22.952-10.822 45.298l-37.215 123.201c-11.947 4.721-38.071 19.883-47.599 64.129l-14.371 66.725-5.339-28.89c-8.218-44.481-33.859-60.413-45.67-65.492l-31.483-117.859c6.193-22.185-8.802-44.639-9.475-45.628-1.757-2.583-4.59-4.136-7.616-4.335 0-.027.002-.054.002-.081 0-16.717-13.6-30.316-30.316-30.316-3.764 0-7.415.679-10.82 1.98-6.752-8.955-17.402-14.459-29.167-14.459-20.157 0-36.557 16.398-36.557 36.556v78.271c0 5.522 4.478 10 10 10s10-4.478 10-10v-45.696c4.975 2.539 10.599 3.98 16.557 3.98h2.25c-.367 9.592.943 23.064 8.98 33.864l14.981 120.908c-9.247 9.032-27.361 33.064-19.17 77.417l33.142 179.361c3.293 17.89 20.973 30.093 38.891 26.777l91.846-16.971c8.768-1.618 16.381-6.555 21.437-13.9 3.796-5.516 5.807-11.894 5.886-18.443l64.517 13.894c17.809 3.837 35.839-7.832 39.666-25.607l11.778-54.689c.639-2.968-.117-5.908-1.82-8.15-1.394-1.837-3.421-3.208-5.851-3.731-5.321-1.143-10.735 2.35-11.882 7.671l-5.433 25.229-117.467-25.299 29.434-136.703 117.474 25.301-5.51 25.587c-.073.337-.127.675-.165 1.01-.561 5.038 2.773 9.781 7.835 10.87 5.401 1.167 10.718-2.271 11.881-7.67l7.616-35.363c.001-.003.001-.006.001-.009l.514-2.387c9.478-44.006-7.847-68.551-16.835-77.886zm-51.869-44.595 41.853 9.014c.271 5.895-.308 13.863-3.635 20.083l-43.171-9.298c-.472-7.043 2.283-14.547 4.953-19.799zm-50.896 169.01c3.669-.687 6.429-3.317 7.51-6.895l36.909-122.186 37.521 8.08-20.536 125.392c-.612 3.733.937 7.493 4 9.713.222.161 20.807 15.623 15.222 54.443l-116.96-25.189c10.563-36.503 34.593-42.939 36.334-43.358zm-213.015 122.015 118.17-21.832 11.795 63.849-13.087 60.774c-1.257 5.832-.936 11.983.969 17.638l-92.442 17.075zm-3.608-221.971c-2.908-5.842-3.421-13.109-3.13-18.815h17.756c7.821 0 15.465-3.071 21.078-8.525l3.357-.62c2.518 5.337 5.048 12.915 4.371 19.936zm-41.919-55.372c0-9.129 7.428-16.556 16.557-16.556 7.307 0 13.664 4.684 15.819 11.654 1.045 3.379 3.796 5.954 7.236 6.773 3.44.822 7.058-.238 9.514-2.784 1.97-2.041 4.604-3.165 7.417-3.165 5.688 0 10.316 4.628 10.316 10.316 0 5.619-4.724 10.316-10.316 10.316h-39.986c-9.129.001-16.557-7.425-16.557-16.554zm59.015 203.629c3.189-2.087 4.727-5.683 4.257-9.47l-14.826-119.653 37.804-6.983 31.206 116.822c.967 3.62 3.654 6.345 7.311 7.14 1.737.474 25.553 7.617 35.038 44.407l-117.655 21.737c-4.288-37.756 15.412-52.938 16.865-54zm135.275 217.525.279 1.506c.65 3.514-.107 7.07-2.134 10.015-2.025 2.944-5.076 4.922-8.59 5.57-.002 0-.003 0-.005 0l-91.849 16.972c-7.184 1.331-14.264-3.567-15.584-10.736l-1.842-9.965 102.823-18.993c5.209 3.235 11.022 4.362 16.902 5.631zm99.315-3.081c-3.005 1.939-6.585 2.592-10.078 1.839l-91.312-19.666c-7.309-1.563-11.535-8.752-10.255-15.906l2.13-9.904 117.474 25.3-2.134 9.91c-.752 3.494-2.821 6.487-5.825 8.427z"/><path d="m349.785 300.027c-19.483-4.196-39.215 8.567-43.403 28.021-2.055 9.539-.271 19.308 5.021 27.505 5.293 8.198 13.461 13.845 23 15.898 19.487 4.199 39.216-8.57 43.403-28.021 2.055-9.539.271-19.308-5.021-27.505-5.293-8.197-13.461-13.844-23-15.898zm8.469 39.193c-1.896 8.804-10.823 14.576-19.642 12.681-4.316-.93-8.013-3.485-10.408-7.195-2.395-3.709-3.202-8.13-2.272-12.446 1.897-8.807 10.823-14.574 19.642-12.681 4.316.93 8.013 3.485 10.408 7.195 2.394 3.708 3.202 8.129 2.272 12.446z"/><path d="m277.764 184.375c5.134 1.843 10.95-.91 12.788-6.038l10.99-30.652c1.864-5.198-.839-10.924-6.038-12.788-5.193-1.864-10.924.838-12.788 6.038l-10.99 30.652c-1.864 5.198.839 10.924 6.038 12.788z"/><path d="m238.697 178.742c2.06 5.046 7.987 7.538 13.038 5.478 5.113-2.088 7.565-7.925 5.478-13.038l-12.517-30.652c-2.087-5.113-7.925-7.564-13.038-5.478-5.113 2.088-7.565 7.925-5.478 13.038z"/><path d="m79.566 155.97c-2.102-5.042-8.01-7.482-13.06-5.41-5.02 2.09-7.504 8.03-5.41 13.061 2.064 5.031 8.045 7.5 13.06 5.409 5.059-2.073 7.471-8.028 5.41-13.06-.25-.6.25.61 0 0z"/><path d="m419.436 347.202c-2.036-4.891-7.78-7.205-12.729-5.332-5.165 1.955-7.772 8.114-5.644 13.199 2.091 4.998 8.164 7.444 13.143 5.317 5.098-2.176 7.252-8.149 5.23-13.184z"/></g><g transform="matrix(0.11718658357858658 0 0 0.11718658357858658 157 -21.000001144400244)" id="L1_58"><path d="m461.071 206.988h-84.503c-2.372-20.877-19.254-37.605-40.408-39.47-6.858-.603-13.555.313-19.905 2.725-4.873 1.849-10.501.056-13.384-4.266-1.401-2.1-2.925-4.088-4.556-5.963v-82.493c0-.029-.004-.057-.004-.085v-15.93c0-.097-.001-.194-.004-.292-.798-27.353-22.828-49.795-50.157-51.093-17.993-.857-34.985 7.386-45.446 22.022-1.922 2.689-5.695 3.389-8.586 1.591-7.988-4.968-17.208-7.221-26.678-6.519-21.514 1.607-38.857 18.874-40.665 40.309-23.708-.002-75.841-.003-75.841-.003-28.086 0-50.934 22.848-50.934 50.933v79.159c0 19.522 8.417 38.104 23.091 50.982l4.881 4.282c12.378 10.861 28.265 16.843 44.732 16.843h2.979v28.942h-13.76c-5.523 0-10 4.477-10 10v28.99c0 13.691 11.139 24.83 24.83 24.83h138.37v75.648h-13.77c-5.523 0-10 4.477-10 10v28.981c0 13.693 11.14 24.833 24.833 24.833h220.491c13.693 0 24.833-11.14 24.833-24.833v-28.981c0-5.523-4.477-10-10-10h-13.765v-28.944h1.554c16.468 0 32.354-5.981 44.732-16.842l4.881-4.283c14.674-12.876 23.091-31.458 23.091-50.981v-79.16c.001-28.084-22.847-50.932-50.932-50.932zm-43.325 231.138h-40.806v-102.176c0-5.523-4.477-10-10-10s-10 4.477-10 10v102.176h-57.557v-145.711c0-5.523-4.477-10-10-10s-10 4.477-10 10v145.711h-44.26v-77.013c12.49-3.891 21.222-15.83 21.222-28.895v-63.896c0-3.477 1.475-6.61 3.822-8.829 2.182-2.06 5.115-3.333 8.347-3.333h63.616c18.581 0 35.908-11.511 42.168-29.173h43.446v211.139zm-94.391-249.186c3.506-1.332 7.226-1.834 11.05-1.499 12.223 1.077 21.867 11.156 22.435 23.445.645 13.975-10.89 25.272-24.708 25.272h-63.622c-8.638 0-16.486 3.43-22.27 8.991-6.094 5.856-9.898 14.077-9.898 23.174v63.896c0 5.551-4.638 10.217-10.182 10.256-5.616.027-10.335-4.63-10.335-10.255v-134.844c.361-3.572.668-6.993 1.736-10.45 4.858-15.717 19.441-26.974 36.691-26.974 12.748 0 24.909 6.527 31.982 17.128 8.008 12 23.62 16.988 37.121 11.86zm-154.431-141.78c5.207-.385 10.266.845 14.634 3.56 11.821 7.346 27.376 4.295 35.415-6.945 6.497-9.09 17.056-14.209 28.231-13.676 16.904.803 30.542 14.654 31.106 31.563v5.864c-16.626.004-47.669.001-79.893 0l-51.523-.002c1.707-10.936 10.84-19.528 22.03-20.364zm-96.219 202.559c-11.612 0-22.813-4.218-31.542-11.876l-4.88-4.282c-10.348-9.081-16.283-22.183-16.283-35.949v-79.159c0-17.056 13.876-30.933 30.933-30.933h24.751v162.198h-2.979zm22.979-162.197c108.381.01 155.835.011 176.697.005 2.138 0 4.121-.001 5.933-.001v57.581c-7.518-3.402-15.813-5.156-24.06-5.156-27.199 0-50.05 18.397-56.561 43.683-1.052 4.084-1.871 8.509-1.871 12.74v102.286h-38.176v-148.708c0-5.523-4.477-10-10-10s-10 4.477-10 10v148.709h-41.962zm-18.93 254.959c-2.663 0-4.83-2.167-4.83-4.83v-18.99s75.689.005 75.722.005 48.176-.005 48.176-.005v13.557c0 3.484.608 6.987 1.793 10.263zm364.757 134.629c0 2.665-2.168 4.833-4.833 4.833h-220.491c-2.665 0-4.833-2.168-4.833-4.833v-18.981h230.157zm50.493-140.031c0 13.766-5.935 26.868-16.282 35.947l-4.881 4.283c-8.729 7.658-19.93 11.876-31.542 11.876h-1.554v-162.197h23.326c17.056 0 30.933 13.876 30.933 30.932z"/><path d="m375.243 147.643c2.559 0 5.119-.976 7.071-2.929l25.984-25.984c3.905-3.905 3.905-10.237 0-14.143-3.905-3.905-10.237-3.905-14.143 0l-25.984 25.984c-3.905 3.905-3.905 10.237 0 14.143 1.954 1.953 4.513 2.929 7.072 2.929z"/><path d="m385.337 172.288c0 5.523 4.477 10 10 10h32.408c5.523 0 10-4.477 10-10s-4.477-10-10-10h-32.408c-5.523 0-10 4.478-10 10z"/><path d="m339.657 130.667h.012c5.523-.006 9.995-4.489 9.988-10.012l-.038-32.408c-.006-5.519-4.482-9.988-10-9.988-.004 0-.008 0-.012 0-5.523.006-9.995 4.489-9.988 10.012l.038 32.408c.007 5.519 4.483 9.988 10 9.988z"/><path d="m372.542 284.102c-4.523-3.018-10.852-1.772-13.87 2.76-3.023 4.538-1.761 10.84 2.77 13.87 4.521 3.023 10.851 1.764 13.86-2.77 3.008-4.533 1.78-10.834-2.76-13.86z"/></g><g transform="matrix(0.1171875 0 0 0.1171875 262.99999874114997 194.00000008583072)" id="L1_59"><path d="m256.119 82.955c5.523 0 10-4.477 10-10v-62.955c0-5.523-4.477-10-10-10s-10 4.477-10 10v62.955c0 5.523 4.477 10 10 10z"/><path d="m313.529 87.713c5.522 0 10-4.477 10-10v-19.55c0-5.523-4.478-10-10-10s-10 4.477-10 10v19.55c0 5.523 4.478 10 10 10z"/><path d="m198.71 86.228c5.523 0 10-4.477 10-10v-19.55c0-5.523-4.477-10-10-10s-10 4.477-10 10v19.55c0 5.523 4.477 10 10 10z"/><path d="m432.213 242.449c-3.46-1.667-7.569-1.204-10.572 1.189l-39.646 31.599c-.601.479-1.176.981-1.754 1.48v-63.023c0-5.523-4.478-10-10-10s-10 4.477-10 10v63.028c-.579-.499-1.154-1.002-1.756-1.481l-26.045-20.76v-124.777c0-3.897-2.264-7.439-5.8-9.075-3.538-1.637-7.702-1.07-10.673 1.452l-46.939 39.856c-5.102 4.333-9.423 9.374-12.908 14.904-3.485-5.529-7.805-10.571-12.908-14.904l-46.939-39.856c-2.971-2.522-7.135-3.089-10.672-1.453s-5.8 5.178-5.8 9.075v124.592l-26.279 20.944c-.603.48-1.181.984-1.761 1.485v-63.03c0-5.523-4.477-10-10-10s-10 4.477-10 10v63.023c-.578-.499-1.153-1.001-1.753-1.48l-39.648-31.598c-3.004-2.395-7.113-2.856-10.573-1.189s-5.66 5.168-5.66 9.009v116.985c0 17.679 7.929 34.137 21.753 45.156l35.879 28.597v22.828c0 5.523 4.477 10 10 10s10-4.477 10-10v-22.832l35.879-28.593c5.77-4.595 10.559-10.243 14.168-16.576.803.706 1.616 1.403 2.458 2.074l41.854 33.359v69.543c0 5.523 4.477 10 10 10s10-4.477 10-10v-69.544l41.855-33.36c.788-.628 1.546-1.282 2.3-1.941 3.6 6.278 8.362 11.88 14.086 16.44l35.88 28.593v22.834c0 5.523 4.478 10 10 10s10-4.477 10-10v-22.828l35.878-28.596c13.825-11.019 21.755-27.478 21.755-45.156v-116.984c.001-3.84-2.199-7.342-5.659-9.009zm-203.019 15.431c10.756 8.576 16.925 21.383 16.925 35.141v33.312l-29.389-23.424c-8.175-6.515-13.898-15.838-16.002-26.079-1.196-5.861-.897-11.812-.929-17.753v-24.624zm83.245-23.427-.002 33.31c0 13.574-6.311 26.684-16.929 35.146l-29.389 23.424v-33.312c0-13.759 6.171-26.568 16.929-35.144zm82.02 56.424 23.414-18.661v17.913 8.317c0 11.556-5.183 22.314-14.22 29.517l-23.408 18.657v-26.228c0-.029-.002-.057-.002-.086.026-11.522 5.203-22.244 14.216-29.429zm-34.219 29.34v.177 26.229l-23.406-18.653c-1.573-1.256-3.042-2.636-4.395-4.124v-29.603-14.185l13.581 10.825c8.995 7.165 14.168 17.849 14.22 29.334zm-94.12-108.777c0-13.217 5.777-25.703 15.853-34.258l30.467-25.87v15.616 20.298c0 13.759-6.171 26.568-16.931 35.145l-29.389 23.424zm-66.32-60.127 30.466 25.869c10.075 8.555 15.853 21.041 15.853 34.258v34.355l-4.457-3.552c-.003-.002-.005-.004-.007-.006l-24.924-19.865c-10.76-8.576-16.931-21.385-16.931-35.144v-20.298zm-33.816 139.569 13.816-11.011v14.372 29.353c-1.41 1.58-2.957 3.042-4.623 4.368l-23.417 18.662v-26.231-.073c.02-11.526 5.2-22.253 14.224-29.44zm-71.857-18.666 23.413 18.661c9.027 7.195 14.207 17.938 14.218 29.48 0 .011-.001.022-.001.033v26.231l-23.411-18.66c-9.037-7.202-14.219-17.96-14.219-29.516v-18.053zm0 96.227v-18.181-8.049l23.413 18.661c9.028 7.196 14.208 17.94 14.218 29.483 0 .012-.001.024-.001.036v26.225l-23.411-18.66c-9.036-7.201-14.219-17.959-14.219-29.515zm81.05 29.513-23.417 18.662v-26.226-.067c.021-11.524 5.202-22.255 14.227-29.452l13.834-11.032c.241 10.315 2.963 20.597 7.92 29.649-2.226 7.255-6.6 13.716-12.564 18.466zm31.857-25.178c-4.486-7.535-7.232-15.618-7.232-24.462v-33.313l29.387 23.422c10.759 8.576 16.93 21.385 16.93 35.144v26.279 7.033l-29.389-23.424c-3.846-3.066-7.095-6.681-9.696-10.679-.055-.092 2.601 3.998 0 0zm88.475 10.679-29.389 23.424v-33.312c0-13.759 6.171-26.568 16.93-35.144l29.388-23.422v33.313c-.001 13.567-6.318 26.683-16.929 35.141zm28.843-3.69c5.023-9.066 7.793-19.383 8.063-29.74l13.602 10.846c8.996 7.175 14.172 17.863 14.224 29.347v.172 26.224l-23.416-18.661c-5.884-4.687-10.224-11.05-12.473-18.188zm93.521-11.324c0 11.555-5.183 22.313-14.22 29.517l-23.408 18.657v-26.223c0-.03-.002-.059-.002-.088.026-11.523 5.203-22.246 14.216-29.431l23.414-18.661z"/><path d="m246.889 121.46c2.031 4.874 7.685 7.373 12.648 5.56 5.261-1.921 7.973-8.026 5.811-13.21-2.003-4.89-7.696-7.379-12.648-5.571-5.285 1.93-7.942 8.022-5.811 13.221.25.6-.25-.61 0 0z"/></g><g transform="matrix(0.11719711124897003 0 0 0.11719711124897003 63.00000148785398 150.99999995708117)" id="L1_60"><path d="m479.633 181.945c0-27.885-14.639-52.402-36.623-66.314l8.503-57.333v.002c3.282-22.103-8.575-44.136-28.84-53.583-13.51-6.286-29.451-6.294-42.959.002-20.259 9.439-32.116 31.472-28.835 53.58l8.504 57.33c-2.284 1.445-4.486 3.005-6.603 4.671h-193.603c-2.117-1.666-4.319-3.226-6.603-4.671l8.502-57.331v.002c3.281-22.109-8.576-44.142-28.84-53.583-13.511-6.286-29.452-6.294-42.961.003-20.256 9.444-32.114 31.477-28.832 53.58l8.513 57.326c-21.989 13.911-36.631 38.43-36.631 66.319 0 21.676 8.84 41.324 23.101 55.535-.355 11.261 1.46 35.641 21.14 53.847 9.957 9.223 10.601 19.364 10.641 20.415-.078 2.688.934 5.159 2.804 7.096 1.884 1.953 4.484 2.915 7.198 2.915h27.113c2.666 0 5.222-1.064 7.1-2.958s2.922-4.458 2.9-7.124c-.001-.104.376-10.843 10.64-20.343 19.708-18.243 21.512-42.596 21.147-53.858 10.36-10.326 17.836-23.53 21.16-38.288h1.46c19.043 0 34.536 15.493 34.536 34.537v84.554c0 5.523 4.478 10 10 10s10-4.477 10-10v-84.554c0-29.932-24.236-54.31-54.116-54.535-.478-13.713-4.635-27.258-11.922-38.884h157.502c-7.289 11.629-11.437 25.168-11.922 38.884-29.88.226-54.116 24.603-54.116 54.535v84.907c0 34.536 8.574 68.295 24.797 97.631 5.143 9.294 10.047 18.161 12.388 34.301h-99.794c2.34-16.142 7.244-25.006 12.386-34.3 1.384-2.499 2.813-5.259 4.373-8.437 2.433-4.958.386-10.95-4.572-13.382-4.962-2.433-10.95-.385-13.383 4.573-1.433 2.92-2.678 5.323-3.917 7.563-7.031 12.708-12.714 24.366-15.108 44.296-16.043 2.18-28.451 15.959-28.451 32.59v18.496c0 5.523 4.478 10 10 10h177.139c5.522 0 10-4.477 10-10v-18.496c0-16.632-12.408-30.412-28.452-32.591-2.395-19.93-8.078-31.588-15.108-44.294-14.587-26.378-22.298-56.791-22.298-87.95v-84.907c0-19.043 15.493-34.537 34.536-34.537h1.462c3.324 14.758 10.8 27.96 21.158 38.286-.365 11.261 1.438 35.616 21.148 53.86 9.96 9.219 10.598 19.354 10.637 20.406-.081 2.689.931 5.161 2.801 7.101 1.885 1.955 4.486 2.917 7.201 2.917h27.114c2.665 0 5.22-1.064 7.098-2.955 1.877-1.892 2.922-4.454 2.902-7.119-.001-.104.384-10.847 10.647-20.348 19.683-18.211 21.501-42.59 21.146-53.859 14.256-14.21 23.092-33.855 23.092-55.526zm-391.752-75.03-7.655-51.552c-1.991-13.413 5.206-26.784 17.5-32.516 8.205-3.824 17.866-3.816 26.069.001 12.489 5.819 19.521 18.886 17.498 32.515v.001l-7.642 51.528c-14.81-4.532-30.959-4.479-45.77.023zm56.866 145.728c-1.738 7.779-5.5 16.722-13.372 24.008-9.33 8.636-13.558 18.145-15.473 25.102h-10.279c-1.916-6.955-6.145-16.465-15.471-25.104-7.858-7.269-11.617-16.212-13.357-23.997 21.292 10.223 46.662 10.225 67.952-.009zm-11.229-16.873c-14.435 6.104-31.082 6.096-45.518-.003-20.947-8.892-35.676-29.669-35.676-53.822 0-23.07 13.441-43.057 32.901-52.552 16.013-7.818 35.251-7.79 51.237.084 21.76 10.702 34.93 34.462 32.415 58.6-2.252 21.498-16.205 39.564-35.359 47.693zm201.03 247.691v8.496h-157.139v-8.496c0-7.113 5.787-12.899 12.899-12.899h131.34c7.113 0 12.9 5.787 12.9 12.899zm43.758-376.571-7.644-51.526c-2.022-13.629 5.009-26.696 17.5-32.516 8.204-3.823 17.864-3.817 26.066 0 12.296 5.732 19.492 19.103 17.501 32.516v.002l-7.642 51.528c-14.782-4.524-30.997-4.523-45.781-.004zm-35.231 81.147c-1.597-24.829 10.771-48.036 32.648-58.677 15.995-7.772 35.173-7.749 51.136.098 19.391 9.52 32.774 29.467 32.774 52.487 0 24.143-14.717 44.911-35.649 53.81-14.43 6.11-31.096 6.128-45.531.02-19.173-8.131-33.138-26.218-35.378-47.738s.002.024 0 0zm92.097 64.609c-1.74 7.788-5.499 16.733-13.358 24.004-.001 0-.001.001-.002.001-9.331 8.636-13.562 18.146-15.478 25.102h-10.281c-1.915-6.957-6.142-16.465-15.472-25.102-7.872-7.287-11.635-16.229-13.373-24.008 21.29 10.234 46.675 10.236 67.964.003z"/><path d="m220.118 367.647c2.907 4.319 8.802 5.7 13.315 3.106 4.776-2.745 6.4-9.074 3.575-13.794-2.796-4.672-9.033-6.239-13.708-3.443-4.837 2.896-6.303 9.441-3.182 14.131.371.55-.359-.54 0 0z"/></g><g transform="matrix(0.06201896816492081 0 0 0.06201896816492081 74.2267793285863 304.1231441497803)" id="L1_61"><path d="m443.252 153.251c-11.734-11.971-26.178-20.976-43.454-20.976h-14.792c-11.784 0-23.358 4.033-32.591 11.355l-7.921 6.283v-84.187c0-5.523-4.477-10-10-10h-52.29c-6.793-24.596-29.359-42.717-56.092-42.717-12.042 0-23.599 3.649-33.421 10.554-5.151 3.62-11.906 3.064-16.062-1.324-13.582-14.341-31.934-22.239-51.676-22.239-37.621 0-68.837 29.393-71.065 66.916-.163 2.75.815 5.446 2.705 7.451s4.522 3.142 7.278 3.142c.085 0 .173-.001.26-.003 5.391-.128 9.725-4.523 9.757-9.938 1.863-26.718 24.191-47.568 51.065-47.568 14.192 0 27.388 5.679 37.154 15.992 11.042 11.659 28.742 13.313 42.085 3.933 6.436-4.524 14.016-6.916 21.919-6.916 21.061 0 38.195 17.128 38.195 38.181 0 7.106-4.68 13.339-12.242 13.339h-61.311c-15.165 0-27.503 12.338-27.503 27.503v44.457c0 4.001-3.255 7.256-7.256 7.256s-7.256-3.255-7.256-7.256c0-15.309-12.455-27.764-27.763-27.764-7.409 0-14.284 1.736-20.032 6.644-6.142 5.243-9.761 13.041-9.761 21.12v72.152c0 4.806-3.91 8.716-8.716 8.716s-8.716-3.91-8.716-8.716v-70.146c0-6.181-3.866-11.664-10-11.664-3.107 0-5.883 1.417-7.717 3.64-1.428 1.729-2.286 3.946-2.286 6.364l.003 330.275c0 13.725 11.166 24.89 24.89 24.89h240.969c13.725 0 24.89-11.166 24.89-24.89v-74.386c8.501 6.743 16.672 13.193 27.451 15.972 9.043 2.331 18.589 1.662 27.848 1.662 12.646 0 24.867-4.569 34.411-12.867 5.056-4.396 10.173-8.632 14.128-14.111 6.416-8.888 9.917-19.731 9.917-30.692v-182.74c-.001-13.635-5.461-26.963-15.002-36.697zm-118.758 296.474h-21.316c.208-1.267.322-2.566.322-3.891v-76.068c0-9.492-2.215-19.01-6.405-27.525l-7.481-15.202c-.25-.508-.516-1.003-.797-1.487 8.29-3.029 17.746-5.71 24.941-5.71 2.968 0 6.608.479 10.736 1.404zm-209.503-3.891v-76.068c0-6.446 1.504-12.911 4.351-18.695l7.48-15.202c.639-1.3 1.918-2.115 3.357-2.164h22.92c.024 0 .048-.004.072-.004 1.464.027 2.77.85 3.419 2.168l7.48 15.202c2.846 5.784 4.351 12.249 4.351 18.695v76.068c0 2.146-1.745 3.891-3.891 3.891h-45.649c-2.145 0-3.89-1.746-3.89-3.891zm153.187-112.138c1.494 0 2.832.833 3.491 2.173l7.48 15.202c2.846 5.784 4.351 12.249 4.351 18.695v76.068c0 2.146-1.745 3.891-3.891 3.891h-45.649c-2.146 0-3.891-1.746-3.891-3.891v-76.068c0-6.446 1.504-12.911 4.351-18.695l7.48-15.202c.649-1.318 1.954-2.141 3.418-2.168.024 0 .048.004.072.004h22.341c.053 0 .105-.008.157-.009zm-44.223-6.657-7.48 15.202c-4.19 8.516-6.405 18.034-6.405 27.525v76.068c0 1.325.113 2.624.322 3.891h-22.292c.208-1.267.322-2.566.322-3.891v-76.068c0-9.492-2.215-19.01-6.405-27.525l-7.481-15.202c-.227-.461-.471-.908-.723-1.349 8.378-3.084 18.01-5.847 25.313-5.847 7.337 0 17.071 2.786 25.533 5.886-.245.428-.483.862-.704 1.31zm-115.078 0-7.48 15.202c-4.19 8.516-6.405 18.034-6.405 27.525v76.068c0 1.325.113 2.624.322 3.891h-21.564v-128.69c3.716-.787 7.015-1.193 9.744-1.193 7.471 0 17.428 2.887 25.995 6.055-.21.376-.42.752-.612 1.142zm235.617-90.492 45.471-38.022h2.037v165.581h-2.475l-45.028-32.012zm-262.028 20.809c15.834 0 28.716-12.882 28.716-28.716v-72.152c0-4.281 3.482-7.764 7.763-7.764h2.03c4.281 0 7.763 3.483 7.763 7.764 0 15.029 12.227 27.256 27.256 27.256s27.256-12.227 27.256-27.256v-44.457c0-4.137 3.366-7.503 7.503-7.503h61.311c16.644 0 30.401-12.52 32.045-28.803h40.384v225.135c-3.888-.675-7.477-1.018-10.736-1.018-17.946 0-40.84 10.25-48.334 13.854h-17.741c-7.516-3.587-30.604-13.854-48.558-13.854-17.946 0-40.84 10.25-48.334 13.854h-18.739c-7.516-3.587-30.604-13.854-48.558-13.854-2.982 0-6.245.296-9.747.861v-44.704c2.752.879 5.681 1.357 8.72 1.357zm237.143 234.644h-240.969c-2.696 0-4.89-2.194-4.89-4.89v-17.382h250.749v17.382c0 2.696-2.194 4.89-4.89 4.89zm101.477-89.603c-5.904 5.133-13.465 7.96-21.289 7.96-12.357 0-24.705 1.104-35.069-7.116-6.743-5.348-13.487-10.696-20.23-16.044v-30.563l34.532 24.55c6.695 4.759 21.327 4.447 27.539-.955 3.452-3.002 5.432-7.348 5.432-11.922v-173.982c0-8.604-7.192-15.799-15.799-15.799h-7.763c-3.698 0-7.297 1.307-10.134 3.679l-33.806 28.268v-35.037l20.344-16.135c5.711-4.53 12.872-7.025 20.163-7.025h14.792c18.762 0 38.455 18.814 38.455 37.671v182.741c0 13.242-7.866 21.624-17.167 29.709z"/><path d="m55.44 118.36c2.982 4.556 9.362 5.761 13.86 2.76 4.523-2.961 5.818-9.392 2.76-13.86-2.988-4.559-9.351-5.775-13.86-2.77-4.52 3.042-5.79 9.329-2.76 13.87.36.55-.361-.54 0 0z"/></g></defs><g fi:class="KUsePattern"><pattern id="pattern_L1_48" width="350" height="350" patternUnits="userSpaceOnUse"><use xlink:href="#L1_48" x="-350" y="-350"/><use xlink:href="#L1_48" x="0" y="-350"/><use xlink:href="#L1_48" x="350" y="-350"/><use xlink:href="#L1_48" x="-350" y="0"/><use xlink:href="#L1_48" x="0" y="0"/><use xlink:href="#L1_48" x="350" y="0"/><use xlink:href="#L1_48" x="-350" y="350"/><use xlink:href="#L1_48" x="0" y="350"/><use xlink:href="#L1_48" x="350" y="350"/></pattern><rect x="0" y="0" width="100%" height="100%" fill="url(#pattern_L1_48)"/></g><g fi:class="KUsePattern"><pattern id="pattern_L1_51" width="350" height="350" patternUnits="userSpaceOnUse"><use xlink:href="#L1_51" x="-350" y="-350"/><use xlink:href="#L1_51" x="0" y="-350"/><use xlink:href="#L1_51" x="350" y="-350"/><use xlink:href="#L1_51" x="-350" y="0"/><use xlink:href="#L1_51" x="0" y="0"/><use xlink:href="#L1_51" x="350" y="0"/><use xlink:href="#L1_51" x="-350" y="350"/><use xlink:href="#L1_51" x="0" y="350"/><use xlink:href="#L1_51" x="350" y="350"/></pattern><rect x="0" y="0" width="100%" height="100%" fill="url(#pattern_L1_51)"/></g><g fi:class="KUsePattern"><pattern id="pattern_L1_50" width="350" height="350" patternUnits="userSpaceOnUse"><use xlink:href="#L1_50" x="-350" y="-350"/><use xlink:href="#L1_50" x="0" y="-350"/><use xlink:href="#L1_50" x="350" y="-350"/><use xlink:href="#L1_50" x="-350" y="0"/><use xlink:href="#L1_50" x="0" y="0"/><use xlink:href="#L1_50" x="350" y="0"/><use xlink:href="#L1_50" x="-350" y="350"/><use xlink:href="#L1_50" x="0" y="350"/><use xlink:href="#L1_50" x="350" y="350"/></pattern><rect x="0" y="0" width="100%" height="100%" fill="url(#pattern_L1_50)"/></g><g fi:class="KUsePattern"><pattern id="pattern_L1_52" width="350" height="350" patternUnits="userSpaceOnUse"><use xlink:href="#L1_52" x="-350" y="-350"/><use xlink:href="#L1_52" x="0" y="-350"/><use xlink:href="#L1_52" x="350" y="-350"/><use xlink:href="#L1_52" x="-350" y="0"/><use xlink:href="#L1_52" x="0" y="0"/><use xlink:href="#L1_52" x="350" y="0"/><use xlink:href="#L1_52" x="-350" y="350"/><use xlink:href="#L1_52" x="0" y="350"/><use xlink:href="#L1_52" x="350" y="350"/></pattern><rect x="0" y="0" width="100%" height="100%" fill="url(#pattern_L1_52)"/></g><g fi:class="KUsePattern"><pattern id="pattern_L1_53" width="350" height="350" patternUnits="userSpaceOnUse"><use xlink:href="#L1_53" x="-350" y="-350"/><use xlink:href="#L1_53" x="0" y="-350"/><use xlink:href="#L1_53" x="350" y="-350"/><use xlink:href="#L1_53" x="-350" y="0"/><use xlink:href="#L1_53" x="0" y="0"/><use xlink:href="#L1_53" x="350" y="0"/><use xlink:href="#L1_53" x="-350" y="350"/><use xlink:href="#L1_53" x="0" y="350"/><use xlink:href="#L1_53" x="350" y="350"/></pattern><rect x="0" y="0" width="100%" height="100%" fill="url(#pattern_L1_53)"/></g><g fi:class="KUsePattern"><pattern id="pattern_L1_54" width="350" height="350" patternUnits="userSpaceOnUse"><use xlink:href="#L1_54" x="-350" y="-350"/><use xlink:href="#L1_54" x="0" y="-350"/><use xlink:href="#L1_54" x="350" y="-350"/><use xlink:href="#L1_54" x="-350" y="0"/><use xlink:href="#L1_54" x="0" y="0"/><use xlink:href="#L1_54" x="350" y="0"/><use xlink:href="#L1_54" x="-350" y="350"/><use xlink:href="#L1_54" x="0" y="350"/><use xlink:href="#L1_54" x="350" y="350"/></pattern><rect x="0" y="0" width="100%" height="100%" fill="url(#pattern_L1_54)"/></g><g fi:class="KUsePattern"><pattern id="pattern_L1_55" width="350" height="350" patternUnits="userSpaceOnUse"><use xlink:href="#L1_55" x="-350" y="-350"/><use xlink:href="#L1_55" x="0" y="-350"/><use xlink:href="#L1_55" x="350" y="-350"/><use xlink:href="#L1_55" x="-350" y="0"/><use xlink:href="#L1_55" x="0" y="0"/><use xlink:href="#L1_55" x="350" y="0"/><use xlink:href="#L1_55" x="-350" y="350"/><use xlink:href="#L1_55" x="0" y="350"/><use xlink:href="#L1_55" x="350" y="350"/></pattern><rect x="0" y="0" width="100%" height="100%" fill="url(#pattern_L1_55)"/></g><g fi:class="KUsePattern"><pattern id="pattern_L1_57" width="350" height="350" patternUnits="userSpaceOnUse"><use xlink:href="#L1_57" x="-350" y="-350"/><use xlink:href="#L1_57" x="0" y="-350"/><use xlink:href="#L1_57" x="350" y="-350"/><use xlink:href="#L1_57" x="-350" y="0"/><use xlink:href="#L1_57" x="0" y="0"/><use xlink:href="#L1_57" x="350" y="0"/><use xlink:href="#L1_57" x="-350" y="350"/><use xlink:href="#L1_57" x="0" y="350"/><use xlink:href="#L1_57" x="350" y="350"/></pattern><rect x="0" y="0" width="100%" height="100%" fill="url(#pattern_L1_57)"/></g><g fi:class="KUsePattern"><pattern id="pattern_L1_58" width="350" height="350" patternUnits="userSpaceOnUse"><use xlink:href="#L1_58" x="-350" y="-350"/><use xlink:href="#L1_58" x="0" y="-350"/><use xlink:href="#L1_58" x="350" y="-350"/><use xlink:href="#L1_58" x="-350" y="0"/><use xlink:href="#L1_58" x="0" y="0"/><use xlink:href="#L1_58" x="350" y="0"/><use xlink:href="#L1_58" x="-350" y="350"/><use xlink:href="#L1_58" x="0" y="350"/><use xlink:href="#L1_58" x="350" y="350"/></pattern><rect x="0" y="0" width="100%" height="100%" fill="url(#pattern_L1_58)"/></g><g fi:class="KUsePattern"><pattern id="pattern_L1_59" width="350" height="350" patternUnits="userSpaceOnUse"><use xlink:href="#L1_59" x="-350" y="-350"/><use xlink:href="#L1_59" x="0" y="-350"/><use xlink:href="#L1_59" x="350" y="-350"/><use xlink:href="#L1_59" x="-350" y="0"/><use xlink:href="#L1_59" x="0" y="0"/><use xlink:href="#L1_59" x="350" y="0"/><use xlink:href="#L1_59" x="-350" y="350"/><use xlink:href="#L1_59" x="0" y="350"/><use xlink:href="#L1_59" x="350" y="350"/></pattern><rect x="0" y="0" width="100%" height="100%" fill="url(#pattern_L1_59)"/></g><g fi:class="KUsePattern"><pattern id="pattern_L1_60" width="350" height="350" patternUnits="userSpaceOnUse"><use xlink:href="#L1_60" x="-350" y="-350"/><use xlink:href="#L1_60" x="0" y="-350"/><use xlink:href="#L1_60" x="350" y="-350"/><use xlink:href="#L1_60" x="-350" y="0"/><use xlink:href="#L1_60" x="0" y="0"/><use xlink:href="#L1_60" x="350" y="0"/><use xlink:href="#L1_60" x="-350" y="350"/><use xlink:href="#L1_60" x="0" y="350"/><use xlink:href="#L1_60" x="350" y="350"/></pattern><rect x="0" y="0" width="100%" height="100%" fill="url(#pattern_L1_60)"/></g><g fi:class="KUsePattern"><pattern id="pattern_L1_61" width="350" height="350" patternUnits="userSpaceOnUse"><use xlink:href="#L1_61" x="-350" y="-350"/><use xlink:href="#L1_61" x="0" y="-350"/><use xlink:href="#L1_61" x="350" y="-350"/><use xlink:href="#L1_61" x="-350" y="0"/><use xlink:href="#L1_61" x="0" y="0"/><use xlink:href="#L1_61" x="350" y="0"/><use xlink:href="#L1_61" x="-350" y="350"/><use xlink:href="#L1_61" x="0" y="350"/><use xlink:href="#L1_61" x="350" y="350"/></pattern><rect x="0" y="0" width="100%" height="100%" fill="url(#pattern_L1_61)"/></g></svg>