<svg xmlns="http://www.w3.org/2000/svg" xmlns:xlink="http://www.w3.org/1999/xlink" xmlns:fi="http://pattern.flaticon.com/" x="0" y="0" width="700" height="350" viewBox="0 0 700 350"><rect x="0px" y="0px" width="100%" height="100%" opacity="1" fill="#ffefbf"/><defs><g transform="matrix(0.17578125 0 0 0.17578125 305 305)" id="L1_109"><path d="m31.109 441.69c3.134 4.697 9.733 5.817 14.265 2.475 4.312-3.18 5.283-9.388 2.235-13.765-3.179-4.566-9.68-5.574-14.145-2.299-4.27 3.134-5.223 9.197-2.355 13.589.361.54-.359-.55 0 0z"/><path d="m508.314 152.385c-4.282-3.487-10.581-2.843-14.068 1.44l-36.017 44.229c-8.896 1.993-16.379 7.76-20.67 15.531h-22.4v-121.12c0-3.426-1.754-6.613-4.647-8.447-19.025-12.054-43.298-22.427-72.215-30.886v-8.007c0-4.817-3.434-8.949-8.169-9.831l-53.698-10c-2.925-.543-5.936.24-8.223 2.14-2.286 1.9-3.608 4.719-3.608 7.691v2.843c-37.892-4.659-76.149-4.659-114.041 0v-2.843c0-2.973-1.322-5.792-3.609-7.691-2.285-1.899-5.297-2.684-8.222-2.14l-53.697 10c-4.735.882-8.169 5.014-8.169 9.831v8.008c-28.93 8.462-53.205 18.835-72.215 30.887-2.893 1.833-4.646 5.02-4.646 8.445v220.15c0 3.425 1.753 6.612 4.646 8.446 9.3 5.895 19.857 11.383 31.581 16.443l-4.201 56.927c-.406 5.508 3.729 10.302 9.236 10.708 5.491.408 10.303-3.729 10.709-9.237l3.746-50.759c6.977 2.478 14.036 4.737 21.143 6.814v6.906c0 4.817 3.434 8.949 8.169 9.831l53.699 10c2.884.537 5.965-.265 8.222-2.14 2.287-1.9 3.609-4.719 3.609-7.691v-1.734c34.82 4.282 70.154 4.641 105.05 1.013 2.999-.312 5.998-.645 8.99-1.013v1.732.002c0 2.973 1.322 5.791 3.608 7.691 2.258 1.874 5.337 2.677 8.223 2.14l53.7-10c4.735-.882 8.169-5.014 8.169-9.831v-6.906c7.107-2.077 14.165-4.337 21.143-6.814l8.982 121.73h-52.02l-39.349-54.887c-2.244-3.131-6.089-4.693-9.884-4.018-.29.052-29.407 5.185-59.593 5.185-30.109 0-59.304-5.133-59.593-5.185-3.796-.676-7.64.887-9.884 4.018l-39.349 54.887h-62.782c-5.522 0-10 4.477-10 10s4.478 10 10 10h67.92c3.224 0 6.249-1.554 8.127-4.173l38.736-54.032c10.605 1.59 33.16 4.485 56.827 4.485s46.222-2.895 56.827-4.485l38.736 54.032c1.878 2.62 4.903 4.173 8.127 4.173h67.92c2.78 0 5.435-1.157 7.326-3.194 1.893-2.037 2.852-4.77 2.646-7.542l-10.231-138.637c11.72-5.059 22.277-10.546 31.58-16.44 2.894-1.833 4.647-5.021 4.647-8.447v-33.53h21.572l10.415 27.757c1.464 3.902 5.194 6.487 9.362 6.487h30.044c5.522 0 10-4.477 10-10v-74.596c0-11.51-6.219-21.59-15.471-27.07l28.672-35.209c3.489-4.281 2.845-10.579-1.438-14.067-4.282-3.487 4.283 3.488 0 0zm-253.488 195.722c-34.644 3.682-69.71 3.304-104.267-1.137v-44.234c18.945 1.331 37.982 2.006 57.021 2.006 19.038 0 38.075-.675 57.02-2.006v44.234c-3.254.419-6.512.791-9.774 1.137-1.792.191.772-.082 0 0zm-177.966-155.361h-56.86v-48.671c18.274-4.838 37.325-8.974 56.86-12.345zm-56.86 20h56.86v61.026c-19.535-3.371-38.586-7.507-56.86-12.345zm130.56 0h114.04v69.945c-37.882 2.73-76.158 2.73-114.04 0zm114.04-20h-114.04v-69.936c37.882-2.73 76.158-2.73 114.04 0zm130.56 0h-56.86v-61.016c19.535 3.371 38.586 7.507 56.86 12.345zm-56.86 20h56.86v48.681c-18.274 4.838-37.325 8.974-56.86 12.345zm56.86-114.673v25.342c-18.337-4.692-37.378-8.706-56.86-11.972v-37.438c22.333 6.886 41.396 14.953 56.86 24.068zm-110.56-50.914 33.698 6.275v297.12l-33.698 6.276v-1.144zm-20 10.948v44.657c-37.889-2.663-76.151-2.663-114.04 0v-44.657c37.877-4.868 76.163-4.868 114.04 0zm-167.739-4.673 33.697-6.275v309.671l-33.697-6.275zm-20.001 20.571v37.437c-19.483 3.266-38.523 7.28-56.86 11.972v-25.342c15.454-9.112 34.519-17.179 56.86-24.067zm-56.86 208.082c18.337 4.692 37.378 8.706 56.86 11.972v37.01c-19.663-6.061-39.094-13.583-56.86-24.06zm344.702 39.69c-8.623 3.551-17.494 6.547-26.402 9.292v-37.01c19.482-3.266 38.523-7.28 56.86-11.972v24.922c-8.971 5.288-19.149 10.217-30.458 14.768-.004.002 11.309-4.551 0 0zm50.458-88.192h18.5v25.5h-18.5zm61.393 59.745h-13.115l-9.777-26.059v-38.537c0-6.312 5.135-11.446 11.446-11.446s11.446 5.135 11.446 11.446z"/></g><g transform="matrix(0.09765949100255966 0 0 0.09765949100255966 150 325)" id="L1_110"><path d="m218.357 341.641c-8.039-5.532-17.755-7.599-27.345-5.829-19.567 3.616-32.909 22.96-29.288 42.56 3.613 19.556 23 32.899 42.561 29.288 19.809-3.66 32.946-22.753 29.287-42.561-1.774-9.596-7.177-17.927-15.215-23.458zm-17.705 46.35c-4.345.801-8.738-.136-12.375-2.638-3.638-2.503-6.083-6.273-6.885-10.616-1.64-8.867 4.399-17.623 13.254-19.258 8.868-1.642 17.623 4.399 19.258 13.252 1.656 8.964-4.289 17.605-13.252 19.26z"/><path d="m441.642 67.469c14.349-18.097 9.123-44.686 8.883-45.861-.797-3.884-3.814-6.931-7.69-7.765l-55.847-12.027c-3.874-.834-7.88.7-10.205 3.911-.702.969-16.34 22.952-10.822 45.298l-37.215 123.201c-11.947 4.721-38.071 19.883-47.599 64.129l-14.371 66.725-5.339-28.89c-8.218-44.481-33.859-60.413-45.67-65.492l-31.483-117.859c6.193-22.185-8.802-44.639-9.475-45.628-1.757-2.583-4.59-4.136-7.616-4.335 0-.027.002-.054.002-.081 0-16.717-13.6-30.316-30.316-30.316-3.764 0-7.415.679-10.82 1.98-6.752-8.955-17.402-14.459-29.167-14.459-20.157 0-36.557 16.398-36.557 36.556v78.271c0 5.522 4.478 10 10 10s10-4.478 10-10v-45.696c4.975 2.539 10.599 3.98 16.557 3.98h2.25c-.367 9.592.943 23.064 8.98 33.864l14.981 120.908c-9.247 9.032-27.361 33.064-19.17 77.417l33.142 179.361c3.293 17.89 20.973 30.093 38.891 26.777l91.846-16.971c8.768-1.618 16.381-6.555 21.437-13.9 3.796-5.516 5.807-11.894 5.886-18.443l64.517 13.894c17.809 3.837 35.839-7.832 39.666-25.607l11.778-54.689c.639-2.968-.117-5.908-1.82-8.15-1.394-1.837-3.421-3.208-5.851-3.731-5.321-1.143-10.735 2.35-11.882 7.671l-5.433 25.229-117.467-25.299 29.434-136.703 117.474 25.301-5.51 25.587c-.073.337-.127.675-.165 1.01-.561 5.038 2.773 9.781 7.835 10.87 5.401 1.167 10.718-2.271 11.881-7.67l7.616-35.363c.001-.003.001-.006.001-.009l.514-2.387c9.478-44.006-7.847-68.551-16.835-77.886zm-51.869-44.595 41.853 9.014c.271 5.895-.308 13.863-3.635 20.083l-43.171-9.298c-.472-7.043 2.283-14.547 4.953-19.799zm-50.896 169.01c3.669-.687 6.429-3.317 7.51-6.895l36.909-122.186 37.521 8.08-20.536 125.392c-.612 3.733.937 7.493 4 9.713.222.161 20.807 15.623 15.222 54.443l-116.96-25.189c10.563-36.503 34.593-42.939 36.334-43.358zm-213.015 122.015 118.17-21.832 11.795 63.849-13.087 60.774c-1.257 5.832-.936 11.983.969 17.638l-92.442 17.075zm-3.608-221.971c-2.908-5.842-3.421-13.109-3.13-18.815h17.756c7.821 0 15.465-3.071 21.078-8.525l3.357-.62c2.518 5.337 5.048 12.915 4.371 19.936zm-41.919-55.372c0-9.129 7.428-16.556 16.557-16.556 7.307 0 13.664 4.684 15.819 11.654 1.045 3.379 3.796 5.954 7.236 6.773 3.44.822 7.058-.238 9.514-2.784 1.97-2.041 4.604-3.165 7.417-3.165 5.688 0 10.316 4.628 10.316 10.316 0 5.619-4.724 10.316-10.316 10.316h-39.986c-9.129.001-16.557-7.425-16.557-16.554zm59.015 203.629c3.189-2.087 4.727-5.683 4.257-9.47l-14.826-119.653 37.804-6.983 31.206 116.822c.967 3.62 3.654 6.345 7.311 7.14 1.737.474 25.553 7.617 35.038 44.407l-117.655 21.737c-4.288-37.756 15.412-52.938 16.865-54zm135.275 217.525.279 1.506c.65 3.514-.107 7.07-2.134 10.015-2.025 2.944-5.076 4.922-8.59 5.57-.002 0-.003 0-.005 0l-91.849 16.972c-7.184 1.331-14.264-3.567-15.584-10.736l-1.842-9.965 102.823-18.993c5.209 3.235 11.022 4.362 16.902 5.631zm99.315-3.081c-3.005 1.939-6.585 2.592-10.078 1.839l-91.312-19.666c-7.309-1.563-11.535-8.752-10.255-15.906l2.13-9.904 117.474 25.3-2.134 9.91c-.752 3.494-2.821 6.487-5.825 8.427z"/><path d="m349.785 300.027c-19.483-4.196-39.215 8.567-43.403 28.021-2.055 9.539-.271 19.308 5.021 27.505 5.293 8.198 13.461 13.845 23 15.898 19.487 4.199 39.216-8.57 43.403-28.021 2.055-9.539.271-19.308-5.021-27.505-5.293-8.197-13.461-13.844-23-15.898zm8.469 39.193c-1.896 8.804-10.823 14.576-19.642 12.681-4.316-.93-8.013-3.485-10.408-7.195-2.395-3.709-3.202-8.13-2.272-12.446 1.897-8.807 10.823-14.574 19.642-12.681 4.316.93 8.013 3.485 10.408 7.195 2.394 3.708 3.202 8.129 2.272 12.446z"/><path d="m277.764 184.375c5.134 1.843 10.95-.91 12.788-6.038l10.99-30.652c1.864-5.198-.839-10.924-6.038-12.788-5.193-1.864-10.924.838-12.788 6.038l-10.99 30.652c-1.864 5.198.839 10.924 6.038 12.788z"/><path d="m238.697 178.742c2.06 5.046 7.987 7.538 13.038 5.478 5.113-2.088 7.565-7.925 5.478-13.038l-12.517-30.652c-2.087-5.113-7.925-7.564-13.038-5.478-5.113 2.088-7.565 7.925-5.478 13.038z"/><path d="m79.566 155.97c-2.102-5.042-8.01-7.482-13.06-5.41-5.02 2.09-7.504 8.03-5.41 13.061 2.064 5.031 8.045 7.5 13.06 5.409 5.059-2.073 7.471-8.028 5.41-13.06-.25-.6.25.61 0 0z"/><path d="m419.436 347.202c-2.036-4.891-7.78-7.205-12.729-5.332-5.165 1.955-7.772 8.114-5.644 13.199 2.091 4.998 8.164 7.444 13.143 5.317 5.098-2.176 7.252-8.149 5.23-13.184z"/></g><g transform="matrix(0.05859375 0 0 0.05859375 335 160)" id="L1_111"><path d="m256.119 82.955c5.523 0 10-4.477 10-10v-62.955c0-5.523-4.477-10-10-10s-10 4.477-10 10v62.955c0 5.523 4.477 10 10 10z"/><path d="m313.529 87.713c5.522 0 10-4.477 10-10v-19.55c0-5.523-4.478-10-10-10s-10 4.477-10 10v19.55c0 5.523 4.478 10 10 10z"/><path d="m198.71 86.228c5.523 0 10-4.477 10-10v-19.55c0-5.523-4.477-10-10-10s-10 4.477-10 10v19.55c0 5.523 4.477 10 10 10z"/><path d="m432.213 242.449c-3.46-1.667-7.569-1.204-10.572 1.189l-39.646 31.599c-.601.479-1.176.981-1.754 1.48v-63.023c0-5.523-4.478-10-10-10s-10 4.477-10 10v63.028c-.579-.499-1.154-1.002-1.756-1.481l-26.045-20.76v-124.777c0-3.897-2.264-7.439-5.8-9.075-3.538-1.637-7.702-1.07-10.673 1.452l-46.939 39.856c-5.102 4.333-9.423 9.374-12.908 14.904-3.485-5.529-7.805-10.571-12.908-14.904l-46.939-39.856c-2.971-2.522-7.135-3.089-10.672-1.453s-5.8 5.178-5.8 9.075v124.592l-26.279 20.944c-.603.48-1.181.984-1.761 1.485v-63.03c0-5.523-4.477-10-10-10s-10 4.477-10 10v63.023c-.578-.499-1.153-1.001-1.753-1.48l-39.648-31.598c-3.004-2.395-7.113-2.856-10.573-1.189s-5.66 5.168-5.66 9.009v116.985c0 17.679 7.929 34.137 21.753 45.156l35.879 28.597v22.828c0 5.523 4.477 10 10 10s10-4.477 10-10v-22.832l35.879-28.593c5.77-4.595 10.559-10.243 14.168-16.576.803.706 1.616 1.403 2.458 2.074l41.854 33.359v69.543c0 5.523 4.477 10 10 10s10-4.477 10-10v-69.544l41.855-33.36c.788-.628 1.546-1.282 2.3-1.941 3.6 6.278 8.362 11.88 14.086 16.44l35.88 28.593v22.834c0 5.523 4.478 10 10 10s10-4.477 10-10v-22.828l35.878-28.596c13.825-11.019 21.755-27.478 21.755-45.156v-116.984c.001-3.84-2.199-7.342-5.659-9.009zm-203.019 15.431c10.756 8.576 16.925 21.383 16.925 35.141v33.312l-29.389-23.424c-8.175-6.515-13.898-15.838-16.002-26.079-1.196-5.861-.897-11.812-.929-17.753v-24.624zm83.245-23.427-.002 33.31c0 13.574-6.311 26.684-16.929 35.146l-29.389 23.424v-33.312c0-13.759 6.171-26.568 16.929-35.144zm82.02 56.424 23.414-18.661v17.913 8.317c0 11.556-5.183 22.314-14.22 29.517l-23.408 18.657v-26.228c0-.029-.002-.057-.002-.086.026-11.522 5.203-22.244 14.216-29.429zm-34.219 29.34v.177 26.229l-23.406-18.653c-1.573-1.256-3.042-2.636-4.395-4.124v-29.603-14.185l13.581 10.825c8.995 7.165 14.168 17.849 14.22 29.334zm-94.12-108.777c0-13.217 5.777-25.703 15.853-34.258l30.467-25.87v15.616 20.298c0 13.759-6.171 26.568-16.931 35.145l-29.389 23.424zm-66.32-60.127 30.466 25.869c10.075 8.555 15.853 21.041 15.853 34.258v34.355l-4.457-3.552c-.003-.002-.005-.004-.007-.006l-24.924-19.865c-10.76-8.576-16.931-21.385-16.931-35.144v-20.298zm-33.816 139.569 13.816-11.011v14.372 29.353c-1.41 1.58-2.957 3.042-4.623 4.368l-23.417 18.662v-26.231-.073c.02-11.526 5.2-22.253 14.224-29.44zm-71.857-18.666 23.413 18.661c9.027 7.195 14.207 17.938 14.218 29.48 0 .011-.001.022-.001.033v26.231l-23.411-18.66c-9.037-7.202-14.219-17.96-14.219-29.516v-18.053zm0 96.227v-18.181-8.049l23.413 18.661c9.028 7.196 14.208 17.94 14.218 29.483 0 .012-.001.024-.001.036v26.225l-23.411-18.66c-9.036-7.201-14.219-17.959-14.219-29.515zm81.05 29.513-23.417 18.662v-26.226-.067c.021-11.524 5.202-22.255 14.227-29.452l13.834-11.032c.241 10.315 2.963 20.597 7.92 29.649-2.226 7.255-6.6 13.716-12.564 18.466zm31.857-25.178c-4.486-7.535-7.232-15.618-7.232-24.462v-33.313l29.387 23.422c10.759 8.576 16.93 21.385 16.93 35.144v26.279 7.033l-29.389-23.424c-3.846-3.066-7.095-6.681-9.696-10.679-.055-.092 2.601 3.998 0 0zm88.475 10.679-29.389 23.424v-33.312c0-13.759 6.171-26.568 16.93-35.144l29.388-23.422v33.313c-.001 13.567-6.318 26.683-16.929 35.141zm28.843-3.69c5.023-9.066 7.793-19.383 8.063-29.74l13.602 10.846c8.996 7.175 14.172 17.863 14.224 29.347v.172 26.224l-23.416-18.661c-5.884-4.687-10.224-11.05-12.473-18.188zm93.521-11.324c0 11.555-5.183 22.313-14.22 29.517l-23.408 18.657v-26.223c0-.03-.002-.059-.002-.088.026-11.523 5.203-22.246 14.216-29.431l23.414-18.661z"/><path d="m246.889 121.46c2.031 4.874 7.685 7.373 12.648 5.56 5.261-1.921 7.973-8.026 5.811-13.21-2.003-4.89-7.696-7.379-12.648-5.571-5.285 1.93-7.942 8.022-5.811 13.221.25.6-.25-.61 0 0z"/></g><path d="M165,0C74.019,0,0,74.019,0,165s74.019,165,165,165c90.982,0,165-74.019,165-165S255.982,0,165,0z" transform="matrix(0.03030303120613098 0 0 0.03030303120613098 257.5 257.5)" id="L1_113" fill="#ffde24"/><g transform="matrix(0.1422490030527115 0 0 0.1422490030527115 145.44571529590348 140.58425521850586)" id="L1_114"><path d="m443.252 153.251c-11.734-11.971-26.178-20.976-43.454-20.976h-14.792c-11.784 0-23.358 4.033-32.591 11.355l-7.921 6.283v-84.187c0-5.523-4.477-10-10-10h-52.29c-6.793-24.596-29.359-42.717-56.092-42.717-12.042 0-23.599 3.649-33.421 10.554-5.151 3.62-11.906 3.064-16.062-1.324-13.582-14.341-31.934-22.239-51.676-22.239-37.621 0-68.837 29.393-71.065 66.916-.163 2.75.815 5.446 2.705 7.451s4.522 3.142 7.278 3.142c.085 0 .173-.001.26-.003 5.391-.128 9.725-4.523 9.757-9.938 1.863-26.718 24.191-47.568 51.065-47.568 14.192 0 27.388 5.679 37.154 15.992 11.042 11.659 28.742 13.313 42.085 3.933 6.436-4.524 14.016-6.916 21.919-6.916 21.061 0 38.195 17.128 38.195 38.181 0 7.106-4.68 13.339-12.242 13.339h-61.311c-15.165 0-27.503 12.338-27.503 27.503v44.457c0 4.001-3.255 7.256-7.256 7.256s-7.256-3.255-7.256-7.256c0-15.309-12.455-27.764-27.763-27.764-7.409 0-14.284 1.736-20.032 6.644-6.142 5.243-9.761 13.041-9.761 21.12v72.152c0 4.806-3.91 8.716-8.716 8.716s-8.716-3.91-8.716-8.716v-70.146c0-6.181-3.866-11.664-10-11.664-3.107 0-5.883 1.417-7.717 3.64-1.428 1.729-2.286 3.946-2.286 6.364l.003 330.275c0 13.725 11.166 24.89 24.89 24.89h240.969c13.725 0 24.89-11.166 24.89-24.89v-74.386c8.501 6.743 16.672 13.193 27.451 15.972 9.043 2.331 18.589 1.662 27.848 1.662 12.646 0 24.867-4.569 34.411-12.867 5.056-4.396 10.173-8.632 14.128-14.111 6.416-8.888 9.917-19.731 9.917-30.692v-182.74c-.001-13.635-5.461-26.963-15.002-36.697zm-118.758 296.474h-21.316c.208-1.267.322-2.566.322-3.891v-76.068c0-9.492-2.215-19.01-6.405-27.525l-7.481-15.202c-.25-.508-.516-1.003-.797-1.487 8.29-3.029 17.746-5.71 24.941-5.71 2.968 0 6.608.479 10.736 1.404zm-209.503-3.891v-76.068c0-6.446 1.504-12.911 4.351-18.695l7.48-15.202c.639-1.3 1.918-2.115 3.357-2.164h22.92c.024 0 .048-.004.072-.004 1.464.027 2.77.85 3.419 2.168l7.48 15.202c2.846 5.784 4.351 12.249 4.351 18.695v76.068c0 2.146-1.745 3.891-3.891 3.891h-45.649c-2.145 0-3.89-1.746-3.89-3.891zm153.187-112.138c1.494 0 2.832.833 3.491 2.173l7.48 15.202c2.846 5.784 4.351 12.249 4.351 18.695v76.068c0 2.146-1.745 3.891-3.891 3.891h-45.649c-2.146 0-3.891-1.746-3.891-3.891v-76.068c0-6.446 1.504-12.911 4.351-18.695l7.48-15.202c.649-1.318 1.954-2.141 3.418-2.168.024 0 .048.004.072.004h22.341c.053 0 .105-.008.157-.009zm-44.223-6.657-7.48 15.202c-4.19 8.516-6.405 18.034-6.405 27.525v76.068c0 1.325.113 2.624.322 3.891h-22.292c.208-1.267.322-2.566.322-3.891v-76.068c0-9.492-2.215-19.01-6.405-27.525l-7.481-15.202c-.227-.461-.471-.908-.723-1.349 8.378-3.084 18.01-5.847 25.313-5.847 7.337 0 17.071 2.786 25.533 5.886-.245.428-.483.862-.704 1.31zm-115.078 0-7.48 15.202c-4.19 8.516-6.405 18.034-6.405 27.525v76.068c0 1.325.113 2.624.322 3.891h-21.564v-128.69c3.716-.787 7.015-1.193 9.744-1.193 7.471 0 17.428 2.887 25.995 6.055-.21.376-.42.752-.612 1.142zm235.617-90.492 45.471-38.022h2.037v165.581h-2.475l-45.028-32.012zm-262.028 20.809c15.834 0 28.716-12.882 28.716-28.716v-72.152c0-4.281 3.482-7.764 7.763-7.764h2.03c4.281 0 7.763 3.483 7.763 7.764 0 15.029 12.227 27.256 27.256 27.256s27.256-12.227 27.256-27.256v-44.457c0-4.137 3.366-7.503 7.503-7.503h61.311c16.644 0 30.401-12.52 32.045-28.803h40.384v225.135c-3.888-.675-7.477-1.018-10.736-1.018-17.946 0-40.84 10.25-48.334 13.854h-17.741c-7.516-3.587-30.604-13.854-48.558-13.854-17.946 0-40.84 10.25-48.334 13.854h-18.739c-7.516-3.587-30.604-13.854-48.558-13.854-2.982 0-6.245.296-9.747.861v-44.704c2.752.879 5.681 1.357 8.72 1.357zm237.143 234.644h-240.969c-2.696 0-4.89-2.194-4.89-4.89v-17.382h250.749v17.382c0 2.696-2.194 4.89-4.89 4.89zm101.477-89.603c-5.904 5.133-13.465 7.96-21.289 7.96-12.357 0-24.705 1.104-35.069-7.116-6.743-5.348-13.487-10.696-20.23-16.044v-30.563l34.532 24.55c6.695 4.759 21.327 4.447 27.539-.955 3.452-3.002 5.432-7.348 5.432-11.922v-173.982c0-8.604-7.192-15.799-15.799-15.799h-7.763c-3.698 0-7.297 1.307-10.134 3.679l-33.806 28.268v-35.037l20.344-16.135c5.711-4.53 12.872-7.025 20.163-7.025h14.792c18.762 0 38.455 18.814 38.455 37.671v182.741c0 13.242-7.866 21.624-17.167 29.709z"/><path d="m55.44 118.36c2.982 4.556 9.362 5.761 13.86 2.76 4.523-2.961 5.818-9.392 2.76-13.86-2.988-4.559-9.351-5.775-13.86-2.77-4.52 3.042-5.79 9.329-2.76 13.87.36.55-.361-.54 0 0z"/></g></defs><g fi:class="KUsePattern"><pattern id="pattern_L1_109" width="350" height="350" patternUnits="userSpaceOnUse"><use xlink:href="#L1_109" x="-350" y="-350"/><use xlink:href="#L1_109" x="0" y="-350"/><use xlink:href="#L1_109" x="350" y="-350"/><use xlink:href="#L1_109" x="-350" y="0"/><use xlink:href="#L1_109" x="0" y="0"/><use xlink:href="#L1_109" x="350" y="0"/><use xlink:href="#L1_109" x="-350" y="350"/><use xlink:href="#L1_109" x="0" y="350"/><use xlink:href="#L1_109" x="350" y="350"/></pattern><rect x="0" y="0" width="100%" height="100%" fill="url(#pattern_L1_109)"/></g><g fi:class="KUsePattern"><pattern id="pattern_L1_110" width="350" height="350" patternUnits="userSpaceOnUse"><use xlink:href="#L1_110" x="-350" y="-350"/><use xlink:href="#L1_110" x="0" y="-350"/><use xlink:href="#L1_110" x="350" y="-350"/><use xlink:href="#L1_110" x="-350" y="0"/><use xlink:href="#L1_110" x="0" y="0"/><use xlink:href="#L1_110" x="350" y="0"/><use xlink:href="#L1_110" x="-350" y="350"/><use xlink:href="#L1_110" x="0" y="350"/><use xlink:href="#L1_110" x="350" y="350"/></pattern><rect x="0" y="0" width="100%" height="100%" fill="url(#pattern_L1_110)"/></g><g fi:class="KUsePattern"><pattern id="pattern_L1_111" width="350" height="350" patternUnits="userSpaceOnUse"><use xlink:href="#L1_111" x="-350" y="-350"/><use xlink:href="#L1_111" x="0" y="-350"/><use xlink:href="#L1_111" x="350" y="-350"/><use xlink:href="#L1_111" x="-350" y="0"/><use xlink:href="#L1_111" x="0" y="0"/><use xlink:href="#L1_111" x="350" y="0"/><use xlink:href="#L1_111" x="-350" y="350"/><use xlink:href="#L1_111" x="0" y="350"/><use xlink:href="#L1_111" x="350" y="350"/></pattern><rect x="0" y="0" width="100%" height="100%" fill="url(#pattern_L1_111)"/></g><g fi:class="KUsePattern"><pattern id="pattern_L1_113" width="350" height="350" patternUnits="userSpaceOnUse"><use xlink:href="#L1_113" x="-350" y="-350"/><use xlink:href="#L1_113" x="0" y="-350"/><use xlink:href="#L1_113" x="350" y="-350"/><use xlink:href="#L1_113" x="-350" y="0"/><use xlink:href="#L1_113" x="0" y="0"/><use xlink:href="#L1_113" x="350" y="0"/><use xlink:href="#L1_113" x="-350" y="350"/><use xlink:href="#L1_113" x="0" y="350"/><use xlink:href="#L1_113" x="350" y="350"/></pattern><rect x="0" y="0" width="100%" height="100%" fill="url(#pattern_L1_113)"/></g><g fi:class="KUsePattern"><pattern id="pattern_L1_114" width="350" height="350" patternUnits="userSpaceOnUse"><use xlink:href="#L1_114" x="-350" y="-350"/><use xlink:href="#L1_114" x="0" y="-350"/><use xlink:href="#L1_114" x="350" y="-350"/><use xlink:href="#L1_114" x="-350" y="0"/><use xlink:href="#L1_114" x="0" y="0"/><use xlink:href="#L1_114" x="350" y="0"/><use xlink:href="#L1_114" x="-350" y="350"/><use xlink:href="#L1_114" x="0" y="350"/><use xlink:href="#L1_114" x="350" y="350"/></pattern><rect x="0" y="0" width="100%" height="100%" fill="url(#pattern_L1_114)"/></g></svg>